_________________________  Visit us at _________________________
  
http://p2pdl.com  ____________________________  http://p2pdl.com


True Justice Violence Of Action 2012 BRRip 300MB x264 AAC - VYTO

				
Genre: Action | Crime | Drama  
Director: Lauro Chartrand
Stars: Steven Seagal, Priscilla Faia and Zak Santiago.
Rated: N/a 
http://www.imdb.com/title/tt2296471/

General
Movie name                     : True Justice Violence Of Action 2012
Format                         : MPEG-4
Format profile                 : Base Media
Codec ID                       : isom
File size                      : 300 MiB
Duration                       : 1h 30mn
Overall bit rate mode          : Variable
Overall bit rate               : 464 Kbps
Source                         : 720p.BluRay.x264-SONiDO(Thanks)

Video
ID                             : 1
Format                         : AVC
Format/Info                    : Advanced Video Codec
Duration                       : 1h 30mn
Bit rate                       : 430 Kbpss
Width                          : 720 pixels
Height                         : 400 pixels
Display aspect ratio           : 16:9
Frame rate mode                : Constant
Frame rate                     : 23.976 fps
Stream size                    : 277 MiB (92%)
Writing library                : x264 core 129 r2230

Audio
ID                             : 2
Format                         : AAC
Format/Info                    : Advanced Audio Codec
Codec ID                       : 40
Duration                       : 1h 30mn
Bit rate mode                  : Variable
Bit rate                       : 32.0 Kbps
Channel(s)                     : 2 channels
Channel positions              : Front: L R
Sampling rate                  : 44.1 KHz
Compression mode               : Lossy
Stream size                    : 20.7 MiB (7%)
Language                       : English

Subtitle                       : Na

Screens:
 
http://www.shotpix.com/images/81546405561826454917.png 
http://www.shotpix.com/images/29447501236399623155.png 
http://www.shotpix.com/images/95216376575947779767.png 
http://www.shotpix.com/images/64144547863143838705.png 
http://www.shotpix.com/images/98765817985358435625.png 
http://www.shotpix.com/images/68566392481425568049.jpg

Sample:



----------------------------------------------------------------------------------------------------


Recommend to you to use latest version of VLC player. Install K-Lite Codec Pack or shark007 codecs
in case of any kind of problem in playback (For non-VLC Media Player users). Alternatively, install
Core AVC codecs, the fastest decoder that there is coupled with Community Center Codec Pack and play
on Windows Media Player Classic. Check sample to be sure.
Enjoy!

Greets to: Vitamin_X, a2zRG, srkfan, MgB, Stumpie1971, Sheychi, StyLishSaLH and, Masta staff members at
ExtraTorrent, TPB,KAT, 1337x, PublicHD, Ahashare, BTScene, SilverTorrent, LimeTorrents, TorrentMafia,
P2PDL, and all others.

Encoder Notes: Looking For Early Access To Anything You Can Provide DVDScr, R5, DVDR, BluRay, Direct
Audio, Early Music Releases, Seedboxes, Dedicated Servers anything u can provide, Advance / Promo CDs/
DVDs. If You Got anything to offer contact me at "prg@hush.com".

Facebook Fan Page: www . facebook . com / p2pdl